<svg width="130" height="84" viewBox="0 0 130 84" fill="none" xmlns="http://www.w3.org/2000/svg">
<path d="M76 16V43C76 43.5523 76.4477 44 77 44H123C123.552 44 124 43.5523 124 43V29.2472C124 28.1061 123.675 26.9887 123.062 26.026L115.268 13.7787C114.167 12.0481 112.258 11 110.206 11H81C78.2386 11 76 13.2386 76 16Z" fill="black" stroke="black" stroke-width="3"/>
<path d="M76 16V43C76 43.5523 76.4477 44 77 44H104C104.552 44 105 43.5523 105 43V29.2472C105 28.1061 104.675 26.9887 104.062 26.026L96.2683 13.7787C95.1669 12.0481 93.2577 11 91.2063 11H81C78.2386 11 76 13.2386 76 16Z" fill="white" stroke="black" stroke-width="3"/>
<path d="M69 60V17.2905C69 17.0172 68.8881 16.7558 68.6904 16.5671L53.7173 2.2766C53.5313 2.09906 53.284 2 53.0269 2H10C9.44772 2 9 2.44772 9 3V60C9 60.5523 9.44771 61 10 61H68C68.5523 61 69 60.5523 69 60Z" fill="white" stroke="black" stroke-width="3"/>
<path d="M68 61V18.2856C68 18.0152 67.8905 17.7563 67.6965 17.568L52.978 3.28242C52.7914 3.1013 52.5416 3 52.2815 3H10C9.44772 3 9 3.44772 9 4V61C9 61.5523 9.44772 62 10 62H67C67.5523 62 68 61.5523 68 61Z" fill="white" stroke="black" stroke-width="3"/>
<mask id="path-5-inside-1" fill="white">
<rect x="25.2148" y="10.2061" width="26.1221" height="16.4122" rx="1"/>
</mask>
<rect x="25.2148" y="10.2061" width="26.1221" height="16.4122" rx="1" fill="white" stroke="black" stroke-width="4" mask="url(#path-5-inside-1)"/>
<path d="M45.3828 15.71V21.1145" stroke="black" stroke-width="3"/>
<mask id="path-7-inside-2" fill="white">
<rect x="18.9102" y="32.3281" width="39.6336" height="18.916" rx="1"/>
</mask>
<rect x="18.9102" y="32.3281" width="39.6336" height="18.916" rx="1" fill="black" stroke="black" stroke-width="4" mask="url(#path-7-inside-2)"/>
<circle cx="107" cy="69.5" r="13" fill="black" stroke="black" stroke-width="2"/>
<circle cx="50" cy="69.5" r="13" fill="black" stroke="black" stroke-width="2"/>
<rect x="11" y="43.5" width="117" height="31" rx="2" fill="black" stroke="black" stroke-width="3"/>
<rect x="2" y="43.5" width="115" height="31" rx="3" fill="white" stroke="black" stroke-width="3"/>
<circle cx="28" cy="69.5" r="13" fill="white" stroke="black" stroke-width="2"/>
<circle cx="27" cy="69.5" r="13" fill="white" stroke="black" stroke-width="2"/>
<circle cx="86" cy="69.5" r="13" fill="white" stroke="black" stroke-width="2"/>
<circle cx="85" cy="69.5" r="13" fill="white" stroke="black" stroke-width="2"/>
</svg>
