<svg width="154" height="84" viewBox="0 0 154 84" fill="none" xmlns="http://www.w3.org/2000/svg">
<path d="M0 83H154" stroke="black" stroke-width="2"/>
<path d="M88 16V43C88 43.5523 88.4477 44 89 44H135C135.552 44 136 43.5523 136 43V29.2472C136 28.1061 135.675 26.9887 135.062 26.026L127.268 13.7787C126.167 12.0481 124.258 11 122.206 11H93C90.2386 11 88 13.2386 88 16Z" fill="black" stroke="black" stroke-width="3"/>
<path d="M88 16V43C88 43.5523 88.4477 44 89 44H116C116.552 44 117 43.5523 117 43V29.2472C117 28.1061 116.675 26.9887 116.062 26.026L108.268 13.7787C107.167 12.0481 105.258 11 103.206 11H93C90.2386 11 88 13.2386 88 16Z" fill="white" stroke="black" stroke-width="3"/>
<path d="M81 60V17.2905C81 17.0172 80.8881 16.7558 80.6904 16.5671L65.7173 2.2766C65.5313 2.09906 65.284 2 65.0269 2H22C21.4477 2 21 2.44772 21 3V60C21 60.5523 21.4477 61 22 61H80C80.5523 61 81 60.5523 81 60Z" fill="white" stroke="black" stroke-width="3"/>
<path d="M80 61V18.2856C80 18.0152 79.8905 17.7563 79.6965 17.568L64.978 3.28242C64.7914 3.1013 64.5416 3 64.2815 3H22C21.4477 3 21 3.44772 21 4V61C21 61.5523 21.4477 62 22 62H79C79.5523 62 80 61.5523 80 61Z" fill="white" stroke="black" stroke-width="3"/>
<mask id="path-6-inside-1" fill="white">
<rect x="37.2148" y="10.2061" width="26.1221" height="16.4122" rx="1"/>
</mask>
<rect x="37.2148" y="10.2061" width="26.1221" height="16.4122" rx="1" fill="white" stroke="black" stroke-width="4" mask="url(#path-6-inside-1)"/>
<path d="M57.3828 15.71V21.1145" stroke="black" stroke-width="3"/>
<mask id="path-8-inside-2" fill="white">
<rect x="30.9102" y="32.3281" width="39.6336" height="18.916" rx="1"/>
</mask>
<rect x="30.9102" y="32.3281" width="39.6336" height="18.916" rx="1" fill="black" stroke="black" stroke-width="4" mask="url(#path-8-inside-2)"/>
<circle cx="119" cy="69.5" r="13" fill="black" stroke="black" stroke-width="2"/>
<circle cx="62" cy="69.5" r="13" fill="black" stroke="black" stroke-width="2"/>
<rect x="23" y="43.5" width="117" height="31" rx="2" fill="black" stroke="black" stroke-width="3"/>
<rect x="14" y="43.5" width="115" height="31" rx="3" fill="white" stroke="black" stroke-width="3"/>
<circle cx="40" cy="69.5" r="13" fill="white" stroke="black" stroke-width="2"/>
<circle cx="39" cy="69.5" r="13" fill="white" stroke="black" stroke-width="2"/>
<circle cx="98" cy="69.5" r="13" fill="white" stroke="black" stroke-width="2"/>
<circle cx="97" cy="69.5" r="13" fill="white" stroke="black" stroke-width="2"/>

</svg>
