<svg width="120" height="81" viewBox="0 0 120 81" fill="none" xmlns="http://www.w3.org/2000/svg">
<path d="M102.156 40.1525L101.903 41.6263L103.376 41.8842C111.958 43.3863 118.501 50.9772 118.501 60.1472C118.501 70.4168 110.337 78.6885 100.312 78.6885H26.4812C16.4569 78.6885 8.29297 70.4168 8.29297 60.1472C8.29297 51.4662 14.1751 44.1963 22.0532 42.1857L23.2532 41.8794L23.1796 40.6432C23.166 40.4151 23.1514 40.1966 23.1372 39.9844C23.0965 39.3739 23.0592 38.8151 23.0592 38.2271C23.0592 21.0433 36.7358 7.16016 53.5526 7.16016C64.3039 7.16016 73.7312 12.8322 79.133 21.4149L79.7815 22.4453L80.9232 22.0226C82.667 21.3772 84.509 21.0137 86.4074 21.0137C95.2258 21.0137 102.405 28.2832 102.405 37.3253C102.405 38.2835 102.316 39.2253 102.156 40.1525Z" fill="black" stroke="black" stroke-width="3"/>
<path d="M95.3634 34.4923L95.11 35.9662L96.583 36.224C105.165 37.7262 111.708 45.3171 111.708 54.4871C111.708 64.7567 103.544 73.0283 93.5193 73.0283H19.6883C9.66394 73.0283 1.5 64.7567 1.5 54.4871C1.5 45.806 7.38211 38.5362 15.2602 36.5256L16.4602 36.2193L16.3866 34.983C16.373 34.7549 16.3584 34.5365 16.3443 34.3243C16.3035 33.7138 16.2662 33.1549 16.2662 32.567C16.2662 15.3832 29.9429 1.5 46.7596 1.5C57.5109 1.5 66.9382 7.17208 72.34 15.7548L72.9885 16.7851L74.1302 16.3625C75.874 15.717 77.7161 15.3535 79.6144 15.3535C88.4329 15.3535 95.6124 22.6231 95.6124 31.6651C95.6124 32.6234 95.5228 33.5651 95.3634 34.4923Z" fill="white" stroke="black" stroke-width="3"/>
</svg>
