<svg width="196" height="311" viewBox="0 0 196 311" fill="none" xmlns="http://www.w3.org/2000/svg">
<path d="M511.478 4.20024C511.478 6.51997 509.6 8.40048 507.283 8.40048C504.967 8.40048 503.089 6.51997 503.089 4.20024C503.089 1.88051 504.967 0 507.283 0C509.6 0 511.478 1.88051 511.478 4.20024Z" fill="#333333"/>
<path d="M461.147 4.20024C461.147 6.51997 459.269 8.40048 456.953 8.40048C454.636 8.40048 452.759 6.51997 452.759 4.20024C452.759 1.88051 454.636 0 456.953 0C459.269 0 461.147 1.88051 461.147 4.20024Z" fill="#333333"/>
<path d="M410.816 4.20024C410.816 6.51997 408.939 8.40048 406.622 8.40048C404.306 8.40048 402.428 6.51997 402.428 4.20024C402.428 1.88051 404.306 0 406.622 0C408.939 0 410.816 1.88051 410.816 4.20024Z" fill="#333333"/>
<path d="M360.486 4.20024C360.486 6.51997 358.608 8.40048 356.292 8.40048C353.975 8.40048 352.097 6.51997 352.097 4.20024C352.097 1.88051 353.975 0 356.292 0C358.608 0 360.486 1.88051 360.486 4.20024Z" fill="#333333"/>
<path d="M310.155 4.20024C310.155 6.51997 308.277 8.40048 305.961 8.40048C303.645 8.40048 301.767 6.51997 301.767 4.20024C301.767 1.88051 303.645 0 305.961 0C308.277 0 310.155 1.88051 310.155 4.20024Z" fill="#333333"/>
<path d="M486.312 29.4017C486.312 31.7214 484.434 33.6019 482.118 33.6019C479.802 33.6019 477.924 31.7214 477.924 29.4017C477.924 27.0819 479.802 25.2014 482.118 25.2014C484.434 25.2014 486.312 27.0819 486.312 29.4017Z" fill="#333333"/>
<path d="M435.982 29.4017C435.982 31.7214 434.104 33.6019 431.787 33.6019C429.471 33.6019 427.593 31.7214 427.593 29.4017C427.593 27.0819 429.471 25.2014 431.787 25.2014C434.104 25.2014 435.982 27.0819 435.982 29.4017Z" fill="#333333"/>
<path d="M385.651 29.4017C385.651 31.7214 383.773 33.6019 381.457 33.6019C379.14 33.6019 377.263 31.7214 377.263 29.4017C377.263 27.0819 379.14 25.2014 381.457 25.2014C383.773 25.2014 385.651 27.0819 385.651 29.4017Z" fill="#333333"/>
<path d="M335.32 29.4017C335.32 31.7214 333.443 33.6019 331.126 33.6019C328.81 33.6019 326.932 31.7214 326.932 29.4017C326.932 27.0819 328.81 25.2014 331.126 25.2014C333.443 25.2014 335.32 27.0819 335.32 29.4017Z" fill="#333333"/>
<path d="M284.99 29.4017C284.99 31.7214 283.112 33.6019 280.796 33.6019C278.479 33.6019 276.601 31.7214 276.601 29.4017C276.601 27.0819 278.479 25.2014 280.796 25.2014C283.112 25.2014 284.99 27.0819 284.99 29.4017Z" fill="#333333"/>
<path d="M511.478 54.6031C511.478 56.9228 509.6 58.8033 507.283 58.8033C504.967 58.8033 503.089 56.9228 503.089 54.6031C503.089 52.2834 504.967 50.4029 507.283 50.4029C509.6 50.4029 511.478 52.2834 511.478 54.6031Z" fill="#333333"/>
<path d="M461.147 54.6031C461.147 56.9228 459.269 58.8033 456.953 58.8033C454.636 58.8033 452.759 56.9228 452.759 54.6031C452.759 52.2834 454.636 50.4029 456.953 50.4029C459.269 50.4029 461.147 52.2834 461.147 54.6031Z" fill="#333333"/>
<path d="M410.816 54.6031C410.816 56.9228 408.939 58.8033 406.622 58.8033C404.306 58.8033 402.428 56.9228 402.428 54.6031C402.428 52.2834 404.306 50.4029 406.622 50.4029C408.939 50.4029 410.816 52.2834 410.816 54.6031Z" fill="#333333"/>
<path d="M360.486 54.6031C360.486 56.9228 358.608 58.8033 356.292 58.8033C353.975 58.8033 352.097 56.9228 352.097 54.6031C352.097 52.2834 353.975 50.4029 356.292 50.4029C358.608 50.4029 360.486 52.2834 360.486 54.6031Z" fill="#333333"/>
<path d="M310.155 54.6031C310.155 56.9228 308.277 58.8033 305.961 58.8033C303.645 58.8033 301.767 56.9228 301.767 54.6031C301.767 52.2834 303.645 50.4029 305.961 50.4029C308.277 50.4029 310.155 52.2834 310.155 54.6031Z" fill="#333333"/>
<path d="M486.312 79.8045C486.312 82.1243 484.434 84.0048 482.118 84.0048C479.802 84.0048 477.924 82.1243 477.924 79.8045C477.924 77.4848 479.802 75.6043 482.118 75.6043C484.434 75.6043 486.312 77.4848 486.312 79.8045Z" fill="#333333"/>
<path d="M435.982 79.8045C435.982 82.1243 434.104 84.0048 431.787 84.0048C429.471 84.0048 427.593 82.1243 427.593 79.8045C427.593 77.4848 429.471 75.6043 431.787 75.6043C434.104 75.6043 435.982 77.4848 435.982 79.8045Z" fill="#333333"/>
<path d="M385.651 79.8045C385.651 82.1243 383.773 84.0048 381.457 84.0048C379.14 84.0048 377.263 82.1243 377.263 79.8045C377.263 77.4848 379.14 75.6043 381.457 75.6043C383.773 75.6043 385.651 77.4848 385.651 79.8045Z" fill="#333333"/>
<path d="M335.32 79.8045C335.32 82.1243 333.443 84.0048 331.126 84.0048C328.81 84.0048 326.932 82.1243 326.932 79.8045C326.932 77.4848 328.81 75.6043 331.126 75.6043C333.443 75.6043 335.32 77.4848 335.32 79.8045Z" fill="#333333"/>
<path d="M284.99 79.8045C284.99 82.1243 283.112 84.0048 280.796 84.0048C278.479 84.0048 276.601 82.1243 276.601 79.8045C276.601 77.4848 278.479 75.6043 280.796 75.6043C283.112 75.6043 284.99 77.4848 284.99 79.8045Z" fill="#333333"/>
<path d="M511.478 105.006C511.478 107.326 509.6 109.206 507.283 109.206C504.967 109.206 503.089 107.326 503.089 105.006C503.089 102.686 504.967 100.806 507.283 100.806C509.6 100.806 511.478 102.686 511.478 105.006Z" fill="#333333"/>
<path d="M461.147 105.006C461.147 107.326 459.269 109.206 456.953 109.206C454.636 109.206 452.759 107.326 452.759 105.006C452.759 102.686 454.636 100.806 456.953 100.806C459.269 100.806 461.147 102.686 461.147 105.006Z" fill="#333333"/>
<path d="M410.816 105.006C410.816 107.326 408.939 109.206 406.622 109.206C404.306 109.206 402.428 107.326 402.428 105.006C402.428 102.686 404.306 100.806 406.622 100.806C408.939 100.806 410.816 102.686 410.816 105.006Z" fill="#333333"/>
<path d="M360.486 105.006C360.486 107.326 358.608 109.206 356.292 109.206C353.975 109.206 352.097 107.326 352.097 105.006C352.097 102.686 353.975 100.806 356.292 100.806C358.608 100.806 360.486 102.686 360.486 105.006Z" fill="#333333"/>
<path d="M310.155 105.006C310.155 107.326 308.277 109.206 305.961 109.206C303.645 109.206 301.767 107.326 301.767 105.006C301.767 102.686 303.645 100.806 305.961 100.806C308.277 100.806 310.155 102.686 310.155 105.006Z" fill="#333333"/>
<path d="M486.312 130.207C486.312 132.527 484.434 134.408 482.118 134.408C479.802 134.408 477.924 132.527 477.924 130.207C477.924 127.888 479.802 126.007 482.118 126.007C484.434 126.007 486.312 127.888 486.312 130.207Z" fill="#333333"/>
<path d="M435.982 130.207C435.982 132.527 434.104 134.408 431.787 134.408C429.471 134.408 427.593 132.527 427.593 130.207C427.593 127.888 429.471 126.007 431.787 126.007C434.104 126.007 435.982 127.888 435.982 130.207Z" fill="#333333"/>
<path d="M385.651 130.207C385.651 132.527 383.773 134.408 381.457 134.408C379.14 134.408 377.263 132.527 377.263 130.207C377.263 127.888 379.14 126.007 381.457 126.007C383.773 126.007 385.651 127.888 385.651 130.207Z" fill="#333333"/>
<path d="M335.32 130.207C335.32 132.527 333.443 134.408 331.126 134.408C328.81 134.408 326.932 132.527 326.932 130.207C326.932 127.888 328.81 126.007 331.126 126.007C333.443 126.007 335.32 127.888 335.32 130.207Z" fill="#333333"/>
<path d="M284.99 130.207C284.99 132.527 283.112 134.408 280.796 134.408C278.479 134.408 276.601 132.527 276.601 130.207C276.601 127.888 278.479 126.007 280.796 126.007C283.112 126.007 284.99 127.888 284.99 130.207Z" fill="#333333"/>
<path d="M511.478 155.409C511.478 157.729 509.6 159.609 507.283 159.609C504.967 159.609 503.089 157.729 503.089 155.409C503.089 153.089 504.967 151.209 507.283 151.209C509.6 151.209 511.478 153.089 511.478 155.409Z" fill="#333333"/>
<path d="M461.147 155.409C461.147 157.729 459.269 159.609 456.953 159.609C454.636 159.609 452.759 157.729 452.759 155.409C452.759 153.089 454.636 151.209 456.953 151.209C459.269 151.209 461.147 153.089 461.147 155.409Z" fill="#333333"/>
<path d="M410.816 155.409C410.816 157.729 408.939 159.609 406.622 159.609C404.306 159.609 402.428 157.729 402.428 155.409C402.428 153.089 404.306 151.209 406.622 151.209C408.939 151.209 410.816 153.089 410.816 155.409Z" fill="#333333"/>
<path d="M360.486 155.409C360.486 157.729 358.608 159.609 356.292 159.609C353.975 159.609 352.097 157.729 352.097 155.409C352.097 153.089 353.975 151.209 356.292 151.209C358.608 151.209 360.486 153.089 360.486 155.409Z" fill="#333333"/>
<path d="M310.155 155.409C310.155 157.729 308.277 159.609 305.961 159.609C303.645 159.609 301.767 157.729 301.767 155.409C301.767 153.089 303.645 151.209 305.961 151.209C308.277 151.209 310.155 153.089 310.155 155.409Z" fill="#333333"/>
<path d="M486.312 180.61C486.312 182.93 484.434 184.81 482.118 184.81C479.802 184.81 477.924 182.93 477.924 180.61C477.924 178.291 479.802 176.41 482.118 176.41C484.434 176.41 486.312 178.291 486.312 180.61Z" fill="#333333"/>
<path d="M435.982 180.61C435.982 182.93 434.104 184.81 431.787 184.81C429.471 184.81 427.593 182.93 427.593 180.61C427.593 178.291 429.471 176.41 431.787 176.41C434.104 176.41 435.982 178.291 435.982 180.61Z" fill="#333333"/>
<path d="M385.651 180.61C385.651 182.93 383.773 184.81 381.457 184.81C379.14 184.81 377.263 182.93 377.263 180.61C377.263 178.291 379.14 176.41 381.457 176.41C383.773 176.41 385.651 178.291 385.651 180.61Z" fill="#333333"/>
<path d="M335.32 180.61C335.32 182.93 333.443 184.81 331.126 184.81C328.81 184.81 326.932 182.93 326.932 180.61C326.932 178.291 328.81 176.41 331.126 176.41C333.443 176.41 335.32 178.291 335.32 180.61Z" fill="#333333"/>
<path d="M284.99 180.61C284.99 182.93 283.112 184.81 280.796 184.81C278.479 184.81 276.601 182.93 276.601 180.61C276.601 178.291 278.479 176.41 280.796 176.41C283.112 176.41 284.99 178.291 284.99 180.61Z" fill="#333333"/>
<path d="M511.478 205.812C511.478 208.131 509.6 210.012 507.283 210.012C504.967 210.012 503.089 208.131 503.089 205.812C503.089 203.492 504.967 201.611 507.283 201.611C509.6 201.611 511.478 203.492 511.478 205.812Z" fill="#333333"/>
<path d="M461.147 205.812C461.147 208.131 459.269 210.012 456.953 210.012C454.636 210.012 452.759 208.131 452.759 205.812C452.759 203.492 454.636 201.611 456.953 201.611C459.269 201.611 461.147 203.492 461.147 205.812Z" fill="#333333"/>
<path d="M410.816 205.812C410.816 208.131 408.939 210.012 406.622 210.012C404.306 210.012 402.428 208.131 402.428 205.812C402.428 203.492 404.306 201.611 406.622 201.611C408.939 201.611 410.816 203.492 410.816 205.812Z" fill="#333333"/>
<path d="M360.486 205.812C360.486 208.131 358.608 210.012 356.292 210.012C353.975 210.012 352.097 208.131 352.097 205.812C352.097 203.492 353.975 201.611 356.292 201.611C358.608 201.611 360.486 203.492 360.486 205.812Z" fill="#333333"/>
<path d="M310.155 205.812C310.155 208.131 308.277 210.012 305.961 210.012C303.645 210.012 301.767 208.131 301.767 205.812C301.767 203.492 303.645 201.611 305.961 201.611C308.277 201.611 310.155 203.492 310.155 205.812Z" fill="#333333"/>
<path d="M486.312 231.013C486.312 233.333 484.434 235.213 482.118 235.213C479.802 235.213 477.924 233.333 477.924 231.013C477.924 228.693 479.802 226.813 482.118 226.813C484.434 226.813 486.312 228.693 486.312 231.013Z" fill="#333333"/>
<path d="M435.982 231.013C435.982 233.333 434.104 235.213 431.787 235.213C429.471 235.213 427.593 233.333 427.593 231.013C427.593 228.693 429.471 226.813 431.787 226.813C434.104 226.813 435.982 228.693 435.982 231.013Z" fill="#333333"/>
<path d="M385.651 231.013C385.651 233.333 383.773 235.213 381.457 235.213C379.14 235.213 377.263 233.333 377.263 231.013C377.263 228.693 379.14 226.813 381.457 226.813C383.773 226.813 385.651 228.693 385.651 231.013Z" fill="#333333"/>
<path d="M335.32 231.013C335.32 233.333 333.443 235.213 331.126 235.213C328.81 235.213 326.932 233.333 326.932 231.013C326.932 228.693 328.81 226.813 331.126 226.813C333.443 226.813 335.32 228.693 335.32 231.013Z" fill="#333333"/>
<path d="M284.99 231.013C284.99 233.333 283.112 235.213 280.796 235.213C278.479 235.213 276.601 233.333 276.601 231.013C276.601 228.693 278.479 226.813 280.796 226.813C283.112 226.813 284.99 228.693 284.99 231.013Z" fill="#333333"/>
<path d="M511.478 256.215C511.478 258.534 509.6 260.415 507.283 260.415C504.967 260.415 503.089 258.534 503.089 256.215C503.089 253.895 504.967 252.014 507.283 252.014C509.6 252.014 511.478 253.895 511.478 256.215Z" fill="#333333"/>
<path d="M461.147 256.215C461.147 258.534 459.269 260.415 456.953 260.415C454.636 260.415 452.759 258.534 452.759 256.215C452.759 253.895 454.636 252.014 456.953 252.014C459.269 252.014 461.147 253.895 461.147 256.215Z" fill="#333333"/>
<path d="M410.816 256.215C410.816 258.534 408.939 260.415 406.622 260.415C404.306 260.415 402.428 258.534 402.428 256.215C402.428 253.895 404.306 252.014 406.622 252.014C408.939 252.014 410.816 253.895 410.816 256.215Z" fill="#333333"/>
<path d="M360.486 256.215C360.486 258.534 358.608 260.415 356.292 260.415C353.975 260.415 352.097 258.534 352.097 256.215C352.097 253.895 353.975 252.014 356.292 252.014C358.608 252.014 360.486 253.895 360.486 256.215Z" fill="#333333"/>
<path d="M310.155 256.215C310.155 258.534 308.277 260.415 305.961 260.415C303.645 260.415 301.767 258.534 301.767 256.215C301.767 253.895 303.645 252.014 305.961 252.014C308.277 252.014 310.155 253.895 310.155 256.215Z" fill="#333333"/>
<path d="M486.312 281.416C486.312 283.736 484.434 285.616 482.118 285.616C479.802 285.616 477.924 283.736 477.924 281.416C477.924 279.096 479.802 277.216 482.118 277.216C484.434 277.216 486.312 279.096 486.312 281.416Z" fill="#333333"/>
<path d="M435.982 281.416C435.982 283.736 434.104 285.616 431.787 285.616C429.471 285.616 427.593 283.736 427.593 281.416C427.593 279.096 429.471 277.216 431.787 277.216C434.104 277.216 435.982 279.096 435.982 281.416Z" fill="#333333"/>
<path d="M385.651 281.416C385.651 283.736 383.773 285.616 381.457 285.616C379.14 285.616 377.263 283.736 377.263 281.416C377.263 279.096 379.14 277.216 381.457 277.216C383.773 277.216 385.651 279.096 385.651 281.416Z" fill="#333333"/>
<path d="M335.32 281.416C335.32 283.736 333.443 285.616 331.126 285.616C328.81 285.616 326.932 283.736 326.932 281.416C326.932 279.096 328.81 277.216 331.126 277.216C333.443 277.216 335.32 279.096 335.32 281.416Z" fill="#333333"/>
<path d="M284.99 281.416C284.99 283.736 283.112 285.616 280.796 285.616C278.479 285.616 276.601 283.736 276.601 281.416C276.601 279.096 278.479 277.216 280.796 277.216C283.112 277.216 284.99 279.096 284.99 281.416Z" fill="#333333"/>
<path d="M511.478 306.617C511.478 308.937 509.6 310.818 507.283 310.818C504.967 310.818 503.089 308.937 503.089 306.617C503.089 304.298 504.967 302.417 507.283 302.417C509.6 302.417 511.478 304.298 511.478 306.617Z" fill="#333333"/>
<path d="M461.147 306.617C461.147 308.937 459.269 310.818 456.953 310.818C454.636 310.818 452.759 308.937 452.759 306.617C452.759 304.298 454.636 302.417 456.953 302.417C459.269 302.417 461.147 304.298 461.147 306.617Z" fill="#333333"/>
<path d="M410.816 306.617C410.816 308.937 408.939 310.818 406.622 310.818C404.306 310.818 402.428 308.937 402.428 306.617C402.428 304.298 404.306 302.417 406.622 302.417C408.939 302.417 410.816 304.298 410.816 306.617Z" fill="#333333"/>
<path d="M360.486 306.617C360.486 308.937 358.608 310.818 356.292 310.818C353.975 310.818 352.097 308.937 352.097 306.617C352.097 304.298 353.975 302.417 356.292 302.417C358.608 302.417 360.486 304.298 360.486 306.617Z" fill="#333333"/>
<path d="M310.155 306.617C310.155 308.937 308.277 310.818 305.961 310.818C303.645 310.818 301.767 308.937 301.767 306.617C301.767 304.298 303.645 302.417 305.961 302.417C308.277 302.417 310.155 304.298 310.155 306.617Z" fill="#333333"/>
<path d="M260.041 4.20024C260.041 6.51997 258.164 8.40048 255.847 8.40048C253.531 8.40048 251.653 6.51997 251.653 4.20024C251.653 1.88051 253.531 0 255.847 0C258.164 0 260.041 1.88051 260.041 4.20024Z" fill="#333333"/>
<path d="M209.711 4.20024C209.711 6.51997 207.833 8.40048 205.517 8.40048C203.2 8.40048 201.322 6.51997 201.322 4.20024C201.322 1.88051 203.2 0 205.517 0C207.833 0 209.711 1.88051 209.711 4.20024Z" fill="#333333"/>
<path d="M159.38 4.20024C159.38 6.51997 157.502 8.40048 155.186 8.40048C152.87 8.40048 150.992 6.51997 150.992 4.20024C150.992 1.88051 152.87 0 155.186 0C157.502 0 159.38 1.88051 159.38 4.20024Z" fill="#333333"/>
<path d="M109.05 4.20024C109.05 6.51997 107.172 8.40048 104.855 8.40048C102.539 8.40048 100.661 6.51997 100.661 4.20024C100.661 1.88051 102.539 0 104.855 0C107.172 0 109.05 1.88051 109.05 4.20024Z" fill="#333333"/>
<path d="M58.719 4.20024C58.719 6.51997 56.8412 8.40048 54.5248 8.40048C52.2084 8.40048 50.3306 6.51997 50.3306 4.20024C50.3306 1.88051 52.2084 0 54.5248 0C56.8412 0 58.719 1.88051 58.719 4.20024Z" fill="#333333"/>
<path d="M8.38843 4.20024C8.38843 6.51997 6.51062 8.40048 4.19422 8.40048C1.87782 8.40048 0 6.51997 0 4.20024C0 1.88051 1.87782 0 4.19422 0C6.51062 0 8.38843 1.88051 8.38843 4.20024Z" fill="#333333"/>
<path d="M234.876 29.4017C234.876 31.7214 232.998 33.6019 230.682 33.6019C228.366 33.6019 226.488 31.7214 226.488 29.4017C226.488 27.0819 228.366 25.2014 230.682 25.2014C232.998 25.2014 234.876 27.0819 234.876 29.4017Z" fill="#333333"/>
<path d="M184.546 29.4017C184.546 31.7214 182.668 33.6019 180.351 33.6019C178.035 33.6019 176.157 31.7214 176.157 29.4017C176.157 27.0819 178.035 25.2014 180.351 25.2014C182.668 25.2014 184.546 27.0819 184.546 29.4017Z" fill="#333333"/>
<path d="M134.215 29.4017C134.215 31.7214 132.337 33.6019 130.021 33.6019C127.704 33.6019 125.827 31.7214 125.827 29.4017C125.827 27.0819 127.704 25.2014 130.021 25.2014C132.337 25.2014 134.215 27.0819 134.215 29.4017Z" fill="#333333"/>
<path d="M83.8843 29.4017C83.8843 31.7214 82.0065 33.6019 79.6901 33.6019C77.3737 33.6019 75.4959 31.7214 75.4959 29.4017C75.4959 27.0819 77.3737 25.2014 79.6901 25.2014C82.0065 25.2014 83.8843 27.0819 83.8843 29.4017Z" fill="#333333"/>
<path d="M33.5537 29.4017C33.5537 31.7214 31.6759 33.6019 29.3595 33.6019C27.0431 33.6019 25.1653 31.7214 25.1653 29.4017C25.1653 27.0819 27.0431 25.2014 29.3595 25.2014C31.6759 25.2014 33.5537 27.0819 33.5537 29.4017Z" fill="#333333"/>
<path d="M260.041 54.6031C260.041 56.9228 258.164 58.8033 255.847 58.8033C253.531 58.8033 251.653 56.9228 251.653 54.6031C251.653 52.2834 253.531 50.4029 255.847 50.4029C258.164 50.4029 260.041 52.2834 260.041 54.6031Z" fill="#333333"/>
<path d="M209.711 54.6031C209.711 56.9228 207.833 58.8033 205.517 58.8033C203.2 58.8033 201.322 56.9228 201.322 54.6031C201.322 52.2834 203.2 50.4029 205.517 50.4029C207.833 50.4029 209.711 52.2834 209.711 54.6031Z" fill="#333333"/>
<path d="M159.38 54.6031C159.38 56.9228 157.502 58.8033 155.186 58.8033C152.87 58.8033 150.992 56.9228 150.992 54.6031C150.992 52.2834 152.87 50.4029 155.186 50.4029C157.502 50.4029 159.38 52.2834 159.38 54.6031Z" fill="#333333"/>
<path d="M109.05 54.6031C109.05 56.9228 107.172 58.8033 104.855 58.8033C102.539 58.8033 100.661 56.9228 100.661 54.6031C100.661 52.2834 102.539 50.4029 104.855 50.4029C107.172 50.4029 109.05 52.2834 109.05 54.6031Z" fill="#333333"/>
<path d="M58.719 54.6031C58.719 56.9228 56.8412 58.8033 54.5248 58.8033C52.2084 58.8033 50.3306 56.9228 50.3306 54.6031C50.3306 52.2834 52.2084 50.4029 54.5248 50.4029C56.8412 50.4029 58.719 52.2834 58.719 54.6031Z" fill="#333333"/>
<path d="M8.38843 54.6031C8.38843 56.9228 6.51062 58.8033 4.19422 58.8033C1.87782 58.8033 0 56.9228 0 54.6031C0 52.2834 1.87782 50.4029 4.19422 50.4029C6.51062 50.4029 8.38843 52.2834 8.38843 54.6031Z" fill="#333333"/>
<path d="M234.876 79.8045C234.876 82.1243 232.998 84.0048 230.682 84.0048C228.366 84.0048 226.488 82.1243 226.488 79.8045C226.488 77.4848 228.366 75.6043 230.682 75.6043C232.998 75.6043 234.876 77.4848 234.876 79.8045Z" fill="#333333"/>
<path d="M184.546 79.8045C184.546 82.1243 182.668 84.0048 180.351 84.0048C178.035 84.0048 176.157 82.1243 176.157 79.8045C176.157 77.4848 178.035 75.6043 180.351 75.6043C182.668 75.6043 184.546 77.4848 184.546 79.8045Z" fill="#333333"/>
<path d="M134.215 79.8045C134.215 82.1243 132.337 84.0048 130.021 84.0048C127.704 84.0048 125.827 82.1243 125.827 79.8045C125.827 77.4848 127.704 75.6043 130.021 75.6043C132.337 75.6043 134.215 77.4848 134.215 79.8045Z" fill="#333333"/>
<path d="M83.8843 79.8045C83.8843 82.1243 82.0065 84.0048 79.6901 84.0048C77.3737 84.0048 75.4959 82.1243 75.4959 79.8045C75.4959 77.4848 77.3737 75.6043 79.6901 75.6043C82.0065 75.6043 83.8843 77.4848 83.8843 79.8045Z" fill="#333333"/>
<path d="M33.5537 79.8045C33.5537 82.1243 31.6759 84.0048 29.3595 84.0048C27.0431 84.0048 25.1653 82.1243 25.1653 79.8045C25.1653 77.4848 27.0431 75.6043 29.3595 75.6043C31.6759 75.6043 33.5537 77.4848 33.5537 79.8045Z" fill="#333333"/>
<path d="M260.041 105.006C260.041 107.326 258.164 109.206 255.847 109.206C253.531 109.206 251.653 107.326 251.653 105.006C251.653 102.686 253.531 100.806 255.847 100.806C258.164 100.806 260.041 102.686 260.041 105.006Z" fill="#333333"/>
<path d="M209.711 105.006C209.711 107.326 207.833 109.206 205.517 109.206C203.2 109.206 201.322 107.326 201.322 105.006C201.322 102.686 203.2 100.806 205.517 100.806C207.833 100.806 209.711 102.686 209.711 105.006Z" fill="#333333"/>
<path d="M159.38 105.006C159.38 107.326 157.502 109.206 155.186 109.206C152.87 109.206 150.992 107.326 150.992 105.006C150.992 102.686 152.87 100.806 155.186 100.806C157.502 100.806 159.38 102.686 159.38 105.006Z" fill="#333333"/>
<path d="M109.05 105.006C109.05 107.326 107.172 109.206 104.855 109.206C102.539 109.206 100.661 107.326 100.661 105.006C100.661 102.686 102.539 100.806 104.855 100.806C107.172 100.806 109.05 102.686 109.05 105.006Z" fill="#333333"/>
<path d="M58.719 105.006C58.719 107.326 56.8412 109.206 54.5248 109.206C52.2084 109.206 50.3306 107.326 50.3306 105.006C50.3306 102.686 52.2084 100.806 54.5248 100.806C56.8412 100.806 58.719 102.686 58.719 105.006Z" fill="#333333"/>
<path d="M8.38843 105.006C8.38843 107.326 6.51062 109.206 4.19422 109.206C1.87782 109.206 0 107.326 0 105.006C0 102.686 1.87782 100.806 4.19422 100.806C6.51062 100.806 8.38843 102.686 8.38843 105.006Z" fill="#333333"/>
<path d="M234.876 130.207C234.876 132.527 232.998 134.408 230.682 134.408C228.366 134.408 226.488 132.527 226.488 130.207C226.488 127.888 228.366 126.007 230.682 126.007C232.998 126.007 234.876 127.888 234.876 130.207Z" fill="#333333"/>
<path d="M184.546 130.207C184.546 132.527 182.668 134.408 180.351 134.408C178.035 134.408 176.157 132.527 176.157 130.207C176.157 127.888 178.035 126.007 180.351 126.007C182.668 126.007 184.546 127.888 184.546 130.207Z" fill="#333333"/>
<path d="M134.215 130.207C134.215 132.527 132.337 134.408 130.021 134.408C127.704 134.408 125.827 132.527 125.827 130.207C125.827 127.888 127.704 126.007 130.021 126.007C132.337 126.007 134.215 127.888 134.215 130.207Z" fill="#333333"/>
<path d="M83.8843 130.207C83.8843 132.527 82.0065 134.408 79.6901 134.408C77.3737 134.408 75.4959 132.527 75.4959 130.207C75.4959 127.888 77.3737 126.007 79.6901 126.007C82.0065 126.007 83.8843 127.888 83.8843 130.207Z" fill="#333333"/>
<path d="M33.5537 130.207C33.5537 132.527 31.6759 134.408 29.3595 134.408C27.0431 134.408 25.1653 132.527 25.1653 130.207C25.1653 127.888 27.0431 126.007 29.3595 126.007C31.6759 126.007 33.5537 127.888 33.5537 130.207Z" fill="#333333"/>
<path d="M260.041 155.409C260.041 157.729 258.164 159.609 255.847 159.609C253.531 159.609 251.653 157.729 251.653 155.409C251.653 153.089 253.531 151.209 255.847 151.209C258.164 151.209 260.041 153.089 260.041 155.409Z" fill="#333333"/>
<path d="M209.711 155.409C209.711 157.729 207.833 159.609 205.517 159.609C203.2 159.609 201.322 157.729 201.322 155.409C201.322 153.089 203.2 151.209 205.517 151.209C207.833 151.209 209.711 153.089 209.711 155.409Z" fill="#333333"/>
<path d="M159.38 155.409C159.38 157.729 157.502 159.609 155.186 159.609C152.87 159.609 150.992 157.729 150.992 155.409C150.992 153.089 152.87 151.209 155.186 151.209C157.502 151.209 159.38 153.089 159.38 155.409Z" fill="#333333"/>
<path d="M109.05 155.409C109.05 157.729 107.172 159.609 104.855 159.609C102.539 159.609 100.661 157.729 100.661 155.409C100.661 153.089 102.539 151.209 104.855 151.209C107.172 151.209 109.05 153.089 109.05 155.409Z" fill="#333333"/>
<path d="M58.719 155.409C58.719 157.729 56.8412 159.609 54.5248 159.609C52.2084 159.609 50.3306 157.729 50.3306 155.409C50.3306 153.089 52.2084 151.209 54.5248 151.209C56.8412 151.209 58.719 153.089 58.719 155.409Z" fill="#333333"/>
<path d="M8.38843 155.409C8.38843 157.729 6.51062 159.609 4.19422 159.609C1.87782 159.609 0 157.729 0 155.409C0 153.089 1.87782 151.209 4.19422 151.209C6.51062 151.209 8.38843 153.089 8.38843 155.409Z" fill="#333333"/>
<path d="M234.876 180.61C234.876 182.93 232.998 184.81 230.682 184.81C228.366 184.81 226.488 182.93 226.488 180.61C226.488 178.291 228.366 176.41 230.682 176.41C232.998 176.41 234.876 178.291 234.876 180.61Z" fill="#333333"/>
<path d="M184.546 180.61C184.546 182.93 182.668 184.81 180.351 184.81C178.035 184.81 176.157 182.93 176.157 180.61C176.157 178.291 178.035 176.41 180.351 176.41C182.668 176.41 184.546 178.291 184.546 180.61Z" fill="#333333"/>
<path d="M134.215 180.61C134.215 182.93 132.337 184.81 130.021 184.81C127.704 184.81 125.827 182.93 125.827 180.61C125.827 178.291 127.704 176.41 130.021 176.41C132.337 176.41 134.215 178.291 134.215 180.61Z" fill="#333333"/>
<path d="M83.8843 180.61C83.8843 182.93 82.0065 184.81 79.6901 184.81C77.3737 184.81 75.4959 182.93 75.4959 180.61C75.4959 178.291 77.3737 176.41 79.6901 176.41C82.0065 176.41 83.8843 178.291 83.8843 180.61Z" fill="#333333"/>
<path d="M33.5537 180.61C33.5537 182.93 31.6759 184.81 29.3595 184.81C27.0431 184.81 25.1653 182.93 25.1653 180.61C25.1653 178.291 27.0431 176.41 29.3595 176.41C31.6759 176.41 33.5537 178.291 33.5537 180.61Z" fill="#333333"/>
<path d="M260.041 205.812C260.041 208.131 258.164 210.012 255.847 210.012C253.531 210.012 251.653 208.131 251.653 205.812C251.653 203.492 253.531 201.611 255.847 201.611C258.164 201.611 260.041 203.492 260.041 205.812Z" fill="#333333"/>
<path d="M209.711 205.812C209.711 208.131 207.833 210.012 205.517 210.012C203.2 210.012 201.322 208.131 201.322 205.812C201.322 203.492 203.2 201.611 205.517 201.611C207.833 201.611 209.711 203.492 209.711 205.812Z" fill="#333333"/>
<path d="M159.38 205.812C159.38 208.131 157.502 210.012 155.186 210.012C152.87 210.012 150.992 208.131 150.992 205.812C150.992 203.492 152.87 201.611 155.186 201.611C157.502 201.611 159.38 203.492 159.38 205.812Z" fill="#333333"/>
<path d="M109.05 205.812C109.05 208.131 107.172 210.012 104.855 210.012C102.539 210.012 100.661 208.131 100.661 205.812C100.661 203.492 102.539 201.611 104.855 201.611C107.172 201.611 109.05 203.492 109.05 205.812Z" fill="#333333"/>
<path d="M58.719 205.812C58.719 208.131 56.8412 210.012 54.5248 210.012C52.2084 210.012 50.3306 208.131 50.3306 205.812C50.3306 203.492 52.2084 201.611 54.5248 201.611C56.8412 201.611 58.719 203.492 58.719 205.812Z" fill="#333333"/>
<path d="M8.38843 205.812C8.38843 208.131 6.51062 210.012 4.19422 210.012C1.87782 210.012 0 208.131 0 205.812C0 203.492 1.87782 201.611 4.19422 201.611C6.51062 201.611 8.38843 203.492 8.38843 205.812Z" fill="#333333"/>
<path d="M234.876 231.013C234.876 233.333 232.998 235.213 230.682 235.213C228.366 235.213 226.488 233.333 226.488 231.013C226.488 228.693 228.366 226.813 230.682 226.813C232.998 226.813 234.876 228.693 234.876 231.013Z" fill="#333333"/>
<path d="M184.546 231.013C184.546 233.333 182.668 235.213 180.351 235.213C178.035 235.213 176.157 233.333 176.157 231.013C176.157 228.693 178.035 226.813 180.351 226.813C182.668 226.813 184.546 228.693 184.546 231.013Z" fill="#333333"/>
<path d="M134.215 231.013C134.215 233.333 132.337 235.213 130.021 235.213C127.704 235.213 125.827 233.333 125.827 231.013C125.827 228.693 127.704 226.813 130.021 226.813C132.337 226.813 134.215 228.693 134.215 231.013Z" fill="#333333"/>
<path d="M83.8843 231.013C83.8843 233.333 82.0065 235.213 79.6901 235.213C77.3737 235.213 75.4959 233.333 75.4959 231.013C75.4959 228.693 77.3737 226.813 79.6901 226.813C82.0065 226.813 83.8843 228.693 83.8843 231.013Z" fill="#333333"/>
<path d="M33.5537 231.013C33.5537 233.333 31.6759 235.213 29.3595 235.213C27.0431 235.213 25.1653 233.333 25.1653 231.013C25.1653 228.693 27.0431 226.813 29.3595 226.813C31.6759 226.813 33.5537 228.693 33.5537 231.013Z" fill="#333333"/>
<path d="M260.041 256.215C260.041 258.534 258.164 260.415 255.847 260.415C253.531 260.415 251.653 258.534 251.653 256.215C251.653 253.895 253.531 252.014 255.847 252.014C258.164 252.014 260.041 253.895 260.041 256.215Z" fill="#333333"/>
<path d="M209.711 256.215C209.711 258.534 207.833 260.415 205.517 260.415C203.2 260.415 201.322 258.534 201.322 256.215C201.322 253.895 203.2 252.014 205.517 252.014C207.833 252.014 209.711 253.895 209.711 256.215Z" fill="#333333"/>
<path d="M159.38 256.215C159.38 258.534 157.502 260.415 155.186 260.415C152.87 260.415 150.992 258.534 150.992 256.215C150.992 253.895 152.87 252.014 155.186 252.014C157.502 252.014 159.38 253.895 159.38 256.215Z" fill="#333333"/>
<path d="M109.05 256.215C109.05 258.534 107.172 260.415 104.855 260.415C102.539 260.415 100.661 258.534 100.661 256.215C100.661 253.895 102.539 252.014 104.855 252.014C107.172 252.014 109.05 253.895 109.05 256.215Z" fill="#333333"/>
<path d="M58.719 256.215C58.719 258.534 56.8412 260.415 54.5248 260.415C52.2084 260.415 50.3306 258.534 50.3306 256.215C50.3306 253.895 52.2084 252.014 54.5248 252.014C56.8412 252.014 58.719 253.895 58.719 256.215Z" fill="#333333"/>
<path d="M8.38843 256.215C8.38843 258.534 6.51062 260.415 4.19422 260.415C1.87782 260.415 0 258.534 0 256.215C0 253.895 1.87782 252.014 4.19422 252.014C6.51062 252.014 8.38843 253.895 8.38843 256.215Z" fill="#333333"/>
<path d="M234.876 281.416C234.876 283.736 232.998 285.616 230.682 285.616C228.366 285.616 226.488 283.736 226.488 281.416C226.488 279.096 228.366 277.216 230.682 277.216C232.998 277.216 234.876 279.096 234.876 281.416Z" fill="#333333"/>
<path d="M184.546 281.416C184.546 283.736 182.668 285.616 180.351 285.616C178.035 285.616 176.157 283.736 176.157 281.416C176.157 279.096 178.035 277.216 180.351 277.216C182.668 277.216 184.546 279.096 184.546 281.416Z" fill="#333333"/>
<path d="M134.215 281.416C134.215 283.736 132.337 285.616 130.021 285.616C127.704 285.616 125.827 283.736 125.827 281.416C125.827 279.096 127.704 277.216 130.021 277.216C132.337 277.216 134.215 279.096 134.215 281.416Z" fill="#333333"/>
<path d="M83.8843 281.416C83.8843 283.736 82.0065 285.616 79.6901 285.616C77.3737 285.616 75.4959 283.736 75.4959 281.416C75.4959 279.096 77.3737 277.216 79.6901 277.216C82.0065 277.216 83.8843 279.096 83.8843 281.416Z" fill="#333333"/>
<path d="M33.5537 281.416C33.5537 283.736 31.6759 285.616 29.3595 285.616C27.0431 285.616 25.1653 283.736 25.1653 281.416C25.1653 279.096 27.0431 277.216 29.3595 277.216C31.6759 277.216 33.5537 279.096 33.5537 281.416Z" fill="#333333"/>
<path d="M260.041 306.617C260.041 308.937 258.164 310.818 255.847 310.818C253.531 310.818 251.653 308.937 251.653 306.617C251.653 304.298 253.531 302.417 255.847 302.417C258.164 302.417 260.041 304.298 260.041 306.617Z" fill="#333333"/>
<path d="M209.711 306.617C209.711 308.937 207.833 310.818 205.517 310.818C203.2 310.818 201.322 308.937 201.322 306.617C201.322 304.298 203.2 302.417 205.517 302.417C207.833 302.417 209.711 304.298 209.711 306.617Z" fill="#333333"/>
<path d="M159.38 306.617C159.38 308.937 157.502 310.818 155.186 310.818C152.87 310.818 150.992 308.937 150.992 306.617C150.992 304.298 152.87 302.417 155.186 302.417C157.502 302.417 159.38 304.298 159.38 306.617Z" fill="#333333"/>
<path d="M109.05 306.617C109.05 308.937 107.172 310.818 104.855 310.818C102.539 310.818 100.661 308.937 100.661 306.617C100.661 304.298 102.539 302.417 104.855 302.417C107.172 302.417 109.05 304.298 109.05 306.617Z" fill="#333333"/>
<path d="M58.719 306.617C58.719 308.937 56.8412 310.818 54.5248 310.818C52.2084 310.818 50.3306 308.937 50.3306 306.617C50.3306 304.298 52.2084 302.417 54.5248 302.417C56.8412 302.417 58.719 304.298 58.719 306.617Z" fill="#333333"/>
<path d="M8.38843 306.617C8.38843 308.937 6.51062 310.818 4.19422 310.818C1.87782 310.818 0 308.937 0 306.617C0 304.298 1.87782 302.417 4.19422 302.417C6.51062 302.417 8.38843 304.298 8.38843 306.617Z" fill="#333333"/>
<path d="M763.348 4.20024C763.348 6.51997 761.47 8.40048 759.153 8.40048C756.837 8.40048 754.959 6.51997 754.959 4.20024C754.959 1.88051 756.837 0 759.153 0C761.47 0 763.348 1.88051 763.348 4.20024Z" fill="#333333"/>
<path d="M713.017 4.20024C713.017 6.51997 711.139 8.40048 708.823 8.40048C706.506 8.40048 704.629 6.51997 704.629 4.20024C704.629 1.88051 706.506 0 708.823 0C711.139 0 713.017 1.88051 713.017 4.20024Z" fill="#333333"/>
<path d="M662.686 4.20024C662.686 6.51997 660.809 8.40048 658.492 8.40048C656.176 8.40048 654.298 6.51997 654.298 4.20024C654.298 1.88051 656.176 0 658.492 0C660.809 0 662.686 1.88051 662.686 4.20024Z" fill="#333333"/>
<path d="M612.356 4.20024C612.356 6.51997 610.478 8.40048 608.161 8.40048C605.845 8.40048 603.967 6.51997 603.967 4.20024C603.967 1.88051 605.845 0 608.161 0C610.478 0 612.356 1.88051 612.356 4.20024Z" fill="#333333"/>
<path d="M562.025 4.20024C562.025 6.51997 560.147 8.40048 557.831 8.40048C555.515 8.40048 553.637 6.51997 553.637 4.20024C553.637 1.88051 555.515 0 557.831 0C560.147 0 562.025 1.88051 562.025 4.20024Z" fill="#333333"/>
<path d="M738.182 29.4017C738.182 31.7214 736.304 33.6019 733.988 33.6019C731.672 33.6019 729.794 31.7214 729.794 29.4017C729.794 27.0819 731.672 25.2014 733.988 25.2014C736.304 25.2014 738.182 27.0819 738.182 29.4017Z" fill="#333333"/>
<path d="M687.852 29.4017C687.852 31.7214 685.974 33.6019 683.657 33.6019C681.341 33.6019 679.463 31.7214 679.463 29.4017C679.463 27.0819 681.341 25.2014 683.657 25.2014C685.974 25.2014 687.852 27.0819 687.852 29.4017Z" fill="#333333"/>
<path d="M637.521 29.4017C637.521 31.7214 635.643 33.6019 633.327 33.6019C631.01 33.6019 629.133 31.7214 629.133 29.4017C629.133 27.0819 631.01 25.2014 633.327 25.2014C635.643 25.2014 637.521 27.0819 637.521 29.4017Z" fill="#333333"/>
<path d="M587.19 29.4017C587.19 31.7214 585.313 33.6019 582.996 33.6019C580.68 33.6019 578.802 31.7214 578.802 29.4017C578.802 27.0819 580.68 25.2014 582.996 25.2014C585.313 25.2014 587.19 27.0819 587.19 29.4017Z" fill="#333333"/>
<path d="M536.86 29.4017C536.86 31.7214 534.982 33.6019 532.666 33.6019C530.349 33.6019 528.471 31.7214 528.471 29.4017C528.471 27.0819 530.349 25.2014 532.666 25.2014C534.982 25.2014 536.86 27.0819 536.86 29.4017Z" fill="#333333"/>
<path d="M763.348 54.6031C763.348 56.9228 761.47 58.8033 759.153 58.8033C756.837 58.8033 754.959 56.9228 754.959 54.6031C754.959 52.2834 756.837 50.4029 759.153 50.4029C761.47 50.4029 763.348 52.2834 763.348 54.6031Z" fill="#333333"/>
<path d="M713.017 54.6031C713.017 56.9228 711.139 58.8033 708.823 58.8033C706.506 58.8033 704.629 56.9228 704.629 54.6031C704.629 52.2834 706.506 50.4029 708.823 50.4029C711.139 50.4029 713.017 52.2834 713.017 54.6031Z" fill="#333333"/>
<path d="M662.686 54.6031C662.686 56.9228 660.809 58.8033 658.492 58.8033C656.176 58.8033 654.298 56.9228 654.298 54.6031C654.298 52.2834 656.176 50.4029 658.492 50.4029C660.809 50.4029 662.686 52.2834 662.686 54.6031Z" fill="#333333"/>
<path d="M612.356 54.6031C612.356 56.9228 610.478 58.8033 608.161 58.8033C605.845 58.8033 603.967 56.9228 603.967 54.6031C603.967 52.2834 605.845 50.4029 608.161 50.4029C610.478 50.4029 612.356 52.2834 612.356 54.6031Z" fill="#333333"/>
<path d="M562.025 54.6031C562.025 56.9228 560.147 58.8033 557.831 58.8033C555.515 58.8033 553.637 56.9228 553.637 54.6031C553.637 52.2834 555.515 50.4029 557.831 50.4029C560.147 50.4029 562.025 52.2834 562.025 54.6031Z" fill="#333333"/>
<path d="M738.182 79.8045C738.182 82.1243 736.304 84.0048 733.988 84.0048C731.672 84.0048 729.794 82.1243 729.794 79.8045C729.794 77.4848 731.672 75.6043 733.988 75.6043C736.304 75.6043 738.182 77.4848 738.182 79.8045Z" fill="#333333"/>
<path d="M687.852 79.8045C687.852 82.1243 685.974 84.0048 683.657 84.0048C681.341 84.0048 679.463 82.1243 679.463 79.8045C679.463 77.4848 681.341 75.6043 683.657 75.6043C685.974 75.6043 687.852 77.4848 687.852 79.8045Z" fill="#333333"/>
<path d="M637.521 79.8045C637.521 82.1243 635.643 84.0048 633.327 84.0048C631.01 84.0048 629.133 82.1243 629.133 79.8045C629.133 77.4848 631.01 75.6043 633.327 75.6043C635.643 75.6043 637.521 77.4848 637.521 79.8045Z" fill="#333333"/>
<path d="M587.19 79.8045C587.19 82.1243 585.313 84.0048 582.996 84.0048C580.68 84.0048 578.802 82.1243 578.802 79.8045C578.802 77.4848 580.68 75.6043 582.996 75.6043C585.313 75.6043 587.19 77.4848 587.19 79.8045Z" fill="#333333"/>
<path d="M536.86 79.8045C536.86 82.1243 534.982 84.0048 532.666 84.0048C530.349 84.0048 528.471 82.1243 528.471 79.8045C528.471 77.4848 530.349 75.6043 532.666 75.6043C534.982 75.6043 536.86 77.4848 536.86 79.8045Z" fill="#333333"/>
<path d="M763.348 105.006C763.348 107.326 761.47 109.206 759.153 109.206C756.837 109.206 754.959 107.326 754.959 105.006C754.959 102.686 756.837 100.806 759.153 100.806C761.47 100.806 763.348 102.686 763.348 105.006Z" fill="#333333"/>
<path d="M713.017 105.006C713.017 107.326 711.139 109.206 708.823 109.206C706.506 109.206 704.629 107.326 704.629 105.006C704.629 102.686 706.506 100.806 708.823 100.806C711.139 100.806 713.017 102.686 713.017 105.006Z" fill="#333333"/>
<path d="M662.686 105.006C662.686 107.326 660.809 109.206 658.492 109.206C656.176 109.206 654.298 107.326 654.298 105.006C654.298 102.686 656.176 100.806 658.492 100.806C660.809 100.806 662.686 102.686 662.686 105.006Z" fill="#333333"/>
<path d="M612.356 105.006C612.356 107.326 610.478 109.206 608.161 109.206C605.845 109.206 603.967 107.326 603.967 105.006C603.967 102.686 605.845 100.806 608.161 100.806C610.478 100.806 612.356 102.686 612.356 105.006Z" fill="#333333"/>
<path d="M562.025 105.006C562.025 107.326 560.147 109.206 557.831 109.206C555.515 109.206 553.637 107.326 553.637 105.006C553.637 102.686 555.515 100.806 557.831 100.806C560.147 100.806 562.025 102.686 562.025 105.006Z" fill="#333333"/>
<path d="M738.182 130.207C738.182 132.527 736.304 134.408 733.988 134.408C731.672 134.408 729.794 132.527 729.794 130.207C729.794 127.888 731.672 126.007 733.988 126.007C736.304 126.007 738.182 127.888 738.182 130.207Z" fill="#333333"/>
<path d="M687.852 130.207C687.852 132.527 685.974 134.408 683.657 134.408C681.341 134.408 679.463 132.527 679.463 130.207C679.463 127.888 681.341 126.007 683.657 126.007C685.974 126.007 687.852 127.888 687.852 130.207Z" fill="#333333"/>
<path d="M637.521 130.207C637.521 132.527 635.643 134.408 633.327 134.408C631.01 134.408 629.133 132.527 629.133 130.207C629.133 127.888 631.01 126.007 633.327 126.007C635.643 126.007 637.521 127.888 637.521 130.207Z" fill="#333333"/>
<path d="M587.19 130.207C587.19 132.527 585.313 134.408 582.996 134.408C580.68 134.408 578.802 132.527 578.802 130.207C578.802 127.888 580.68 126.007 582.996 126.007C585.313 126.007 587.19 127.888 587.19 130.207Z" fill="#333333"/>
<path d="M536.86 130.207C536.86 132.527 534.982 134.408 532.666 134.408C530.349 134.408 528.471 132.527 528.471 130.207C528.471 127.888 530.349 126.007 532.666 126.007C534.982 126.007 536.86 127.888 536.86 130.207Z" fill="#333333"/>
<path d="M763.348 155.409C763.348 157.729 761.47 159.609 759.153 159.609C756.837 159.609 754.959 157.729 754.959 155.409C754.959 153.089 756.837 151.209 759.153 151.209C761.47 151.209 763.348 153.089 763.348 155.409Z" fill="#333333"/>
<path d="M713.017 155.409C713.017 157.729 711.139 159.609 708.823 159.609C706.506 159.609 704.629 157.729 704.629 155.409C704.629 153.089 706.506 151.209 708.823 151.209C711.139 151.209 713.017 153.089 713.017 155.409Z" fill="#333333"/>
<path d="M662.686 155.409C662.686 157.729 660.809 159.609 658.492 159.609C656.176 159.609 654.298 157.729 654.298 155.409C654.298 153.089 656.176 151.209 658.492 151.209C660.809 151.209 662.686 153.089 662.686 155.409Z" fill="#333333"/>
<path d="M612.356 155.409C612.356 157.729 610.478 159.609 608.161 159.609C605.845 159.609 603.967 157.729 603.967 155.409C603.967 153.089 605.845 151.209 608.161 151.209C610.478 151.209 612.356 153.089 612.356 155.409Z" fill="#333333"/>
<path d="M562.025 155.409C562.025 157.729 560.147 159.609 557.831 159.609C555.515 159.609 553.637 157.729 553.637 155.409C553.637 153.089 555.515 151.209 557.831 151.209C560.147 151.209 562.025 153.089 562.025 155.409Z" fill="#333333"/>
<path d="M738.182 180.61C738.182 182.93 736.304 184.81 733.988 184.81C731.672 184.81 729.794 182.93 729.794 180.61C729.794 178.291 731.672 176.41 733.988 176.41C736.304 176.41 738.182 178.291 738.182 180.61Z" fill="#333333"/>
<path d="M687.852 180.61C687.852 182.93 685.974 184.81 683.657 184.81C681.341 184.81 679.463 182.93 679.463 180.61C679.463 178.291 681.341 176.41 683.657 176.41C685.974 176.41 687.852 178.291 687.852 180.61Z" fill="#333333"/>
<path d="M637.521 180.61C637.521 182.93 635.643 184.81 633.327 184.81C631.01 184.81 629.133 182.93 629.133 180.61C629.133 178.291 631.01 176.41 633.327 176.41C635.643 176.41 637.521 178.291 637.521 180.61Z" fill="#333333"/>
<path d="M587.19 180.61C587.19 182.93 585.313 184.81 582.996 184.81C580.68 184.81 578.802 182.93 578.802 180.61C578.802 178.291 580.68 176.41 582.996 176.41C585.313 176.41 587.19 178.291 587.19 180.61Z" fill="#333333"/>
<path d="M536.86 180.61C536.86 182.93 534.982 184.81 532.666 184.81C530.349 184.81 528.471 182.93 528.471 180.61C528.471 178.291 530.349 176.41 532.666 176.41C534.982 176.41 536.86 178.291 536.86 180.61Z" fill="#333333"/>
<path d="M763.348 205.812C763.348 208.131 761.47 210.012 759.153 210.012C756.837 210.012 754.959 208.131 754.959 205.812C754.959 203.492 756.837 201.611 759.153 201.611C761.47 201.611 763.348 203.492 763.348 205.812Z" fill="#333333"/>
<path d="M713.017 205.812C713.017 208.131 711.139 210.012 708.823 210.012C706.506 210.012 704.629 208.131 704.629 205.812C704.629 203.492 706.506 201.611 708.823 201.611C711.139 201.611 713.017 203.492 713.017 205.812Z" fill="#333333"/>
<path d="M662.686 205.812C662.686 208.131 660.809 210.012 658.492 210.012C656.176 210.012 654.298 208.131 654.298 205.812C654.298 203.492 656.176 201.611 658.492 201.611C660.809 201.611 662.686 203.492 662.686 205.812Z" fill="#333333"/>
<path d="M612.356 205.812C612.356 208.131 610.478 210.012 608.161 210.012C605.845 210.012 603.967 208.131 603.967 205.812C603.967 203.492 605.845 201.611 608.161 201.611C610.478 201.611 612.356 203.492 612.356 205.812Z" fill="#333333"/>
<path d="M562.025 205.812C562.025 208.131 560.147 210.012 557.831 210.012C555.515 210.012 553.637 208.131 553.637 205.812C553.637 203.492 555.515 201.611 557.831 201.611C560.147 201.611 562.025 203.492 562.025 205.812Z" fill="#333333"/>
<path d="M738.182 231.013C738.182 233.333 736.304 235.213 733.988 235.213C731.672 235.213 729.794 233.333 729.794 231.013C729.794 228.693 731.672 226.813 733.988 226.813C736.304 226.813 738.182 228.693 738.182 231.013Z" fill="#333333"/>
<path d="M687.852 231.013C687.852 233.333 685.974 235.213 683.657 235.213C681.341 235.213 679.463 233.333 679.463 231.013C679.463 228.693 681.341 226.813 683.657 226.813C685.974 226.813 687.852 228.693 687.852 231.013Z" fill="#333333"/>
<path d="M637.521 231.013C637.521 233.333 635.643 235.213 633.327 235.213C631.01 235.213 629.133 233.333 629.133 231.013C629.133 228.693 631.01 226.813 633.327 226.813C635.643 226.813 637.521 228.693 637.521 231.013Z" fill="#333333"/>
<path d="M587.19 231.013C587.19 233.333 585.313 235.213 582.996 235.213C580.68 235.213 578.802 233.333 578.802 231.013C578.802 228.693 580.68 226.813 582.996 226.813C585.313 226.813 587.19 228.693 587.19 231.013Z" fill="#333333"/>
<path d="M536.86 231.013C536.86 233.333 534.982 235.213 532.666 235.213C530.349 235.213 528.471 233.333 528.471 231.013C528.471 228.693 530.349 226.813 532.666 226.813C534.982 226.813 536.86 228.693 536.86 231.013Z" fill="#333333"/>
<path d="M763.348 256.215C763.348 258.534 761.47 260.415 759.153 260.415C756.837 260.415 754.959 258.534 754.959 256.215C754.959 253.895 756.837 252.014 759.153 252.014C761.47 252.014 763.348 253.895 763.348 256.215Z" fill="#333333"/>
<path d="M713.017 256.215C713.017 258.534 711.139 260.415 708.823 260.415C706.506 260.415 704.629 258.534 704.629 256.215C704.629 253.895 706.506 252.014 708.823 252.014C711.139 252.014 713.017 253.895 713.017 256.215Z" fill="#333333"/>
<path d="M662.686 256.215C662.686 258.534 660.809 260.415 658.492 260.415C656.176 260.415 654.298 258.534 654.298 256.215C654.298 253.895 656.176 252.014 658.492 252.014C660.809 252.014 662.686 253.895 662.686 256.215Z" fill="#333333"/>
<path d="M612.356 256.215C612.356 258.534 610.478 260.415 608.161 260.415C605.845 260.415 603.967 258.534 603.967 256.215C603.967 253.895 605.845 252.014 608.161 252.014C610.478 252.014 612.356 253.895 612.356 256.215Z" fill="#333333"/>
<path d="M562.025 256.215C562.025 258.534 560.147 260.415 557.831 260.415C555.515 260.415 553.637 258.534 553.637 256.215C553.637 253.895 555.515 252.014 557.831 252.014C560.147 252.014 562.025 253.895 562.025 256.215Z" fill="#333333"/>
<path d="M738.182 281.416C738.182 283.736 736.304 285.616 733.988 285.616C731.672 285.616 729.794 283.736 729.794 281.416C729.794 279.096 731.672 277.216 733.988 277.216C736.304 277.216 738.182 279.096 738.182 281.416Z" fill="#333333"/>
<path d="M687.852 281.416C687.852 283.736 685.974 285.616 683.657 285.616C681.341 285.616 679.463 283.736 679.463 281.416C679.463 279.096 681.341 277.216 683.657 277.216C685.974 277.216 687.852 279.096 687.852 281.416Z" fill="#333333"/>
<path d="M637.521 281.416C637.521 283.736 635.643 285.616 633.327 285.616C631.01 285.616 629.133 283.736 629.133 281.416C629.133 279.096 631.01 277.216 633.327 277.216C635.643 277.216 637.521 279.096 637.521 281.416Z" fill="#333333"/>
<path d="M587.19 281.416C587.19 283.736 585.313 285.616 582.996 285.616C580.68 285.616 578.802 283.736 578.802 281.416C578.802 279.096 580.68 277.216 582.996 277.216C585.313 277.216 587.19 279.096 587.19 281.416Z" fill="#333333"/>
<path d="M536.86 281.416C536.86 283.736 534.982 285.616 532.666 285.616C530.349 285.616 528.471 283.736 528.471 281.416C528.471 279.096 530.349 277.216 532.666 277.216C534.982 277.216 536.86 279.096 536.86 281.416Z" fill="#333333"/>
<path d="M763.348 306.617C763.348 308.937 761.47 310.818 759.153 310.818C756.837 310.818 754.959 308.937 754.959 306.617C754.959 304.298 756.837 302.417 759.153 302.417C761.47 302.417 763.348 304.298 763.348 306.617Z" fill="#333333"/>
<path d="M713.017 306.617C713.017 308.937 711.139 310.818 708.823 310.818C706.506 310.818 704.629 308.937 704.629 306.617C704.629 304.298 706.506 302.417 708.823 302.417C711.139 302.417 713.017 304.298 713.017 306.617Z" fill="#333333"/>
<path d="M662.686 306.617C662.686 308.937 660.809 310.818 658.492 310.818C656.176 310.818 654.298 308.937 654.298 306.617C654.298 304.298 656.176 302.417 658.492 302.417C660.809 302.417 662.686 304.298 662.686 306.617Z" fill="#333333"/>
<path d="M612.356 306.617C612.356 308.937 610.478 310.818 608.161 310.818C605.845 310.818 603.967 308.937 603.967 306.617C603.967 304.298 605.845 302.417 608.161 302.417C610.478 302.417 612.356 304.298 612.356 306.617Z" fill="#333333"/>
<path d="M562.025 306.617C562.025 308.937 560.147 310.818 557.831 310.818C555.515 310.818 553.637 308.937 553.637 306.617C553.637 304.298 555.515 302.417 557.831 302.417C560.147 302.417 562.025 304.298 562.025 306.617Z" fill="#333333"/>
</svg>
