<svg width="169" height="134" viewBox="0 0 169 134" fill="none" xmlns="http://www.w3.org/2000/svg">
<g clip-path="url(#clip0)">
<path d="M7.0416 119.004H14.7874V126.75C14.7874 128.431 15.4551 130.043 16.6436 131.231C17.8322 132.42 19.4441 133.087 21.1249 133.087H161.958C163.639 133.087 165.251 132.42 166.44 131.231C167.628 130.043 168.296 128.431 168.296 126.75V44.3625C168.296 42.6817 167.628 41.0697 166.44 39.8812C165.251 38.6927 163.639 38.025 161.958 38.025H154.212V30.2791C154.212 28.5983 153.545 26.9864 152.356 25.7979C151.168 24.6093 149.556 23.9416 147.875 23.9416H97.527V3.64052C97.527 2.89349 97.2303 2.17707 96.702 1.64884C96.1738 1.12061 95.4574 0.823853 94.7104 0.823853H62.9031C62.1561 0.823853 61.4397 1.12061 60.9115 1.64884C60.3832 2.17707 60.0865 2.89349 60.0865 3.64052V23.9416H7.0416C5.36079 23.9416 3.74882 24.6093 2.56031 25.7979C1.3718 26.9864 0.704102 28.5983 0.704102 30.2791V112.667C0.704102 114.347 1.3718 115.959 2.56031 117.148C3.74882 118.336 5.36079 119.004 7.0416 119.004Z" fill="#F6F0E1"/>
<path d="M84.1481 26.7583H147.875C148.809 26.7583 149.704 27.1292 150.365 27.7895C151.025 28.4498 151.396 29.3454 151.396 30.2791V116.187H7.04183C6.10805 116.187 5.21251 115.817 4.55222 115.156C3.89194 114.496 3.521 113.6 3.521 112.667V30.2791C3.521 29.3454 3.89194 28.4498 4.55222 27.7895C5.21251 27.1292 6.10805 26.7583 7.04183 26.7583H62.9034" stroke="black" stroke-width="7.04167" stroke-linecap="round" stroke-linejoin="round"/>
<path d="M165.479 44.3625V126.75C165.479 127.684 165.109 128.579 164.448 129.24C163.788 129.9 162.892 130.271 161.959 130.271H21.1253C20.1915 130.271 19.296 129.9 18.6357 129.24C17.9754 128.579 17.6045 127.684 17.6045 126.75V116.188H147.875C148.809 116.188 149.705 115.817 150.365 115.156C151.025 114.496 151.396 113.6 151.396 112.667V40.8417H161.959C162.892 40.8417 163.788 41.2126 164.448 41.8729C165.109 42.5332 165.479 43.4287 165.479 44.3625Z" fill="black" stroke="black" stroke-width="7.04167" stroke-linecap="round" stroke-linejoin="round"/>
<path d="M84.148 3.6405H62.9033V53.756H84.148V3.6405Z" stroke="black" stroke-width="7.04167" stroke-linecap="round" stroke-linejoin="round"/>
<path d="M62.9033 37.0884H84.148" stroke="black" stroke-width="4.92917" stroke-linecap="round" stroke-linejoin="round"/>
<path d="M98.2314 74.2896H128.863" stroke="black" stroke-width="7.04167" stroke-miterlimit="10"/>
<path d="M22.7095 74.2896H76.7543" stroke="black" stroke-width="7.04167" stroke-miterlimit="10"/>
<path d="M114.251 93.8302H128.862" stroke="black" stroke-width="7.04167" stroke-miterlimit="10"/>
<path d="M62.1992 93.8302H98.2314" stroke="black" stroke-width="7.04167" stroke-miterlimit="10"/>
<path d="M22.7095 93.8302H46.6511" stroke="black" stroke-width="7.04167" stroke-miterlimit="10"/>
<path d="M94.7104 3.6405H84.1479V26.7583H94.7104V3.6405Z" fill="black" stroke="black" stroke-width="7.04167" stroke-linecap="round" stroke-linejoin="round"/>
</g>
<defs>
<clipPath id="clip0">
<rect width="169" height="133.792" fill="white"/>
</clipPath>
</defs>
</svg>
