<svg width="70" height="82" viewBox="0 0 70 82" fill="none" xmlns="http://www.w3.org/2000/svg">
<path d="M59.3165 29.1597V30.1597H60.3165H64.6915C64.9418 30.1597 65.1499 30.3632 65.1499 30.6236V67.2196C65.1499 69.9003 62.9779 72.075 60.3167 72.075H19.4833C16.8218 72.075 14.6499 69.9003 14.6499 67.2197V30.6236C14.6499 30.3632 14.858 30.1597 15.1083 30.1597H19.4833H20.4833V29.1597V23.3043C20.4833 12.5526 29.1978 3.8105 39.8999 3.8105C50.602 3.8105 59.3165 12.5526 59.3165 23.3043V29.1597ZM45.2604 59.6293L45.2603 59.6288L44.4011 51.8713C45.8702 50.5905 46.7334 48.7362 46.7334 46.7258C46.7334 42.9477 43.6731 39.8704 39.9 39.8704C36.1269 39.8704 33.0667 42.9478 33.0667 46.7258C33.0667 48.7362 33.9299 50.5905 35.399 51.8713L34.5396 59.6288L34.5396 59.6291C34.4627 60.3242 34.6853 61.0204 35.15 61.542C35.616 62.0652 36.2837 62.3643 36.9833 62.3643H42.8167C43.5163 62.3643 44.1839 62.0652 44.65 61.542L44.6501 61.5419C45.1148 61.0201 45.337 60.324 45.2604 59.6293ZM51.5665 30.1597H52.5665V29.1597V23.3043C52.5665 16.2983 46.8886 10.5936 39.8999 10.5936C32.9112 10.5936 27.2333 16.2983 27.2333 23.3043V29.1597V30.1597H28.2333H51.5665Z" fill="black" stroke="black" stroke-width="2"/>
<path d="M54.4166 26.3492V27.3492H55.4166H59.7916C60.0419 27.3492 60.25 27.5527 60.25 27.8131V64.4091C60.25 67.0898 58.078 69.2645 55.4168 69.2645H14.5834C11.9219 69.2645 9.75 67.0898 9.75 64.4093V27.8131C9.75 27.5527 9.95812 27.3492 10.2084 27.3492H14.5834H15.5834V26.3492V20.4938C15.5834 9.74212 24.2979 1 35 1C45.7021 1 54.4166 9.74212 54.4166 20.4938V26.3492ZM40.3605 56.8189L40.3604 56.8183L39.5011 49.0608C40.9703 47.78 41.8335 45.9257 41.8335 43.9153C41.8335 40.1372 38.7732 37.0599 35.0001 37.0599C31.227 37.0599 28.1668 40.1373 28.1668 43.9153C28.1668 45.9257 29.03 47.78 30.4991 49.0608L29.6397 56.8183L29.6397 56.8186C29.5628 57.5137 29.7854 58.2099 30.2501 58.7316C30.7161 59.2547 31.3837 59.5538 32.0834 59.5538H37.9168C38.6164 59.5538 39.284 59.2547 39.7501 58.7316L39.7502 58.7314C40.2149 58.2096 40.4371 57.5135 40.3605 56.8189ZM46.6666 27.3492H47.6666V26.3492V20.4938C47.6666 13.4879 41.9887 7.78307 35 7.78307C28.0113 7.78307 22.3334 13.4879 22.3334 20.4938V26.3492V27.3492H23.3334H46.6666Z" fill="white" stroke="black" stroke-width="2"/>
</svg>
