<svg width="286" height="257" viewBox="0 0 286 257" fill="none" xmlns="http://www.w3.org/2000/svg">
<mask id="path-1-inside-1" fill="white">
<path fill-rule="evenodd" clip-rule="evenodd" d="M216.5 28.7578L20.6233 43.3948C17.3188 43.6417 14.8154 46.5224 15.0317 49.829L28.1297 249.992C28.3461 253.298 31.2003 255.779 34.5048 255.532L278.912 237.268C282.217 237.021 284.72 234.141 284.504 230.834L274.585 79.2498L216.5 28.7578Z"/>
</mask>
<path fill-rule="evenodd" clip-rule="evenodd" d="M216.5 28.7578L20.6233 43.3948C17.3188 43.6417 14.8154 46.5224 15.0317 49.829L28.1297 249.992C28.3461 253.298 31.2003 255.779 34.5048 255.532L278.912 237.268C282.217 237.021 284.72 234.141 284.504 230.834L274.585 79.2498L216.5 28.7578Z" fill="black"/>
<path d="M20.6233 43.3948L20.9959 48.3808L20.6233 43.3948ZM216.5 28.7578L219.78 24.9843L218.207 23.6164L216.128 23.7717L216.5 28.7578ZM15.0317 49.829L20.0211 49.5026L15.0317 49.829ZM28.1297 249.992L33.119 249.665L28.1297 249.992ZM34.5048 255.532L34.1322 250.546L34.1322 250.546L34.5048 255.532ZM278.912 237.268L279.285 242.254L279.285 242.254L278.912 237.268ZM284.504 230.834L289.493 230.508L289.493 230.508L284.504 230.834ZM274.585 79.2498L279.574 78.9233L279.438 76.8436L277.865 75.4762L274.585 79.2498ZM20.9959 48.3808L216.873 33.7439L216.128 23.7717L20.2507 38.4087L20.9959 48.3808ZM20.0211 49.5026C19.9838 48.9335 20.4271 48.4233 20.9959 48.3808L20.2507 38.4087C14.2104 38.86 9.6469 44.1113 10.0424 50.1555L20.0211 49.5026ZM33.119 249.665L20.0211 49.5026L10.0424 50.1555L23.1404 250.318L33.119 249.665ZM34.1322 250.546C33.5995 250.585 33.1539 250.198 33.119 249.665L23.1404 250.318C23.5383 256.398 28.8012 260.972 34.8774 260.518L34.1322 250.546ZM278.54 232.282L34.1322 250.546L34.8774 260.518L279.285 242.254L278.54 232.282ZM279.514 231.16C279.552 231.73 279.108 232.24 278.54 232.282L279.285 242.254C285.325 241.803 289.889 236.552 289.493 230.508L279.514 231.16ZM269.595 79.5763L279.514 231.161L289.493 230.508L279.574 78.9233L269.595 79.5763ZM277.865 75.4762L219.78 24.9843L213.22 32.5314L271.304 83.0233L277.865 75.4762Z" fill="black" mask="url(#path-1-inside-1)"/>
<mask id="path-3-inside-2" fill="white">
<path fill-rule="evenodd" clip-rule="evenodd" d="M202.884 16.9208L7.81821 31.4971C4.51372 31.744 2.0103 34.6247 2.22668 37.9314L15.1941 236.098C15.4826 240.507 19.2882 243.814 23.6942 243.485L266.107 225.371C269.412 225.124 271.915 222.243 271.699 218.936L261.833 68.1644L202.884 16.9208Z"/>
</mask>
<path fill-rule="evenodd" clip-rule="evenodd" d="M202.884 16.9208L7.81821 31.4971C4.51372 31.744 2.0103 34.6247 2.22668 37.9314L15.1941 236.098C15.4826 240.507 19.2882 243.814 23.6942 243.485L266.107 225.371C269.412 225.124 271.915 222.243 271.699 218.936L261.833 68.1644L202.884 16.9208Z" fill="#BAE8DB"/>
<path d="M7.81821 31.4971L7.52014 27.5082L7.81821 31.4971ZM202.884 16.9208L205.508 13.902L204.249 12.8076L202.586 12.9319L202.884 16.9208ZM2.22668 37.9314L6.21814 37.6702L2.22668 37.9314ZM15.1941 236.098L11.2026 236.359L15.1941 236.098ZM23.6942 243.485L23.9922 247.474L23.9923 247.474L23.6942 243.485ZM266.107 225.371L265.809 221.382L266.107 225.371ZM271.699 218.936L275.69 218.675L275.69 218.675L271.699 218.936ZM261.833 68.1644L265.824 67.9032L265.715 66.2394L264.457 65.1455L261.833 68.1644ZM8.11628 35.486L203.182 20.9097L202.586 12.9319L7.52014 27.5082L8.11628 35.486ZM6.21814 37.6702C6.14507 36.5536 7.00039 35.5694 8.11628 35.486L7.52014 27.5082C2.02704 27.9187 -2.12447 32.6959 -1.76479 38.1926L6.21814 37.6702ZM19.1855 235.837L6.21814 37.6702L-1.76479 38.1926L11.2026 236.359L19.1855 235.837ZM23.3961 239.496C21.2075 239.66 19.3288 238.027 19.1855 235.837L11.2026 236.359C11.6363 242.987 17.3688 247.969 23.9922 247.474L23.3961 239.496ZM265.809 221.382L23.3961 239.496L23.9923 247.474L266.405 229.36L265.809 221.382ZM267.707 219.198C267.78 220.314 266.925 221.298 265.809 221.382L266.405 229.36C271.898 228.949 276.05 224.172 275.69 218.675L267.707 219.198ZM257.841 68.4256L267.707 219.198L275.69 218.675L265.824 67.9032L257.841 68.4256ZM264.457 65.1455L205.508 13.902L200.259 19.9397L259.208 71.1832L264.457 65.1455Z" fill="black" mask="url(#path-3-inside-2)"/>
<mask id="path-5-inside-3" fill="white">
<path fill-rule="evenodd" clip-rule="evenodd" d="M201.604 16.7451L198.354 16.9724L202.26 72.836C202.414 75.0398 204.325 76.7013 206.529 76.5472L262.393 72.6409L262.075 68.0914L261.47 68.7864L201.604 16.7451ZM258.246 13.3438L258.207 12.787L257.651 12.826L258.246 13.3438Z"/>
</mask>
<path fill-rule="evenodd" clip-rule="evenodd" d="M201.604 16.7451L198.354 16.9724L202.26 72.836C202.414 75.0398 204.325 76.7013 206.529 76.5472L262.393 72.6409L262.075 68.0914L261.47 68.7864L201.604 16.7451ZM258.246 13.3438L258.207 12.787L257.651 12.826L258.246 13.3438Z" fill="#F6F0E1"/>
<path d="M198.354 16.9724L198.144 13.9797C197.351 14.0352 196.611 14.4038 196.089 15.0042C195.567 15.6047 195.305 16.388 195.361 17.1817L198.354 16.9724ZM201.604 16.7451L203.572 14.481C202.972 13.959 202.188 13.6969 201.395 13.7524L201.604 16.7451ZM202.26 72.836L205.253 72.6267L202.26 72.836ZM262.393 72.6409L262.602 75.6336C263.396 75.5781 264.135 75.2095 264.657 74.609C265.179 74.0086 265.441 73.2253 265.385 72.4316L262.393 72.6409ZM262.075 68.0914L265.067 67.8822C264.983 66.6717 264.177 65.6315 263.027 65.2465C261.876 64.8615 260.607 65.2075 259.81 66.1233L262.075 68.0914ZM261.47 68.7864L259.502 71.0505C260.103 71.5725 260.886 71.8346 261.68 71.7791C262.473 71.7236 263.213 71.3551 263.735 70.7546L261.47 68.7864ZM258.207 12.787L261.2 12.5778C261.145 11.784 260.776 11.0449 260.176 10.5229C259.575 10.0009 258.792 9.73883 257.998 9.79433L258.207 12.787ZM258.246 13.3438L256.278 15.6079C257.194 16.404 258.499 16.57 259.585 16.0286C260.671 15.4872 261.324 14.3449 261.239 13.1345L258.246 13.3438ZM257.651 12.826L257.441 9.83326C256.231 9.91791 255.191 10.7234 254.806 11.874C254.421 13.0247 254.767 14.294 255.682 15.0901L257.651 12.826ZM198.563 19.9651L201.813 19.7378L201.395 13.7524L198.144 13.9797L198.563 19.9651ZM205.253 72.6267L201.346 16.7631L195.361 17.1817L199.267 73.0453L205.253 72.6267ZM206.32 73.5545C205.769 73.5931 205.291 73.1777 205.253 72.6267L199.267 73.0453C199.537 76.9018 202.882 79.8096 206.738 79.5399L206.32 73.5545ZM262.183 69.6482L206.32 73.5545L206.738 79.5399L262.602 75.6336L262.183 69.6482ZM259.082 68.3007L259.4 72.8501L265.385 72.4316L265.067 67.8822L259.082 68.3007ZM259.81 66.1233L259.206 66.8182L263.735 70.7546L264.339 70.0596L259.81 66.1233ZM263.439 66.5223L203.572 14.481L199.636 19.0093L259.502 71.0505L263.439 66.5223ZM255.215 12.9963L255.254 13.5531L261.239 13.1345L261.2 12.5778L255.215 12.9963ZM257.86 15.8186L258.417 15.7797L257.998 9.79433L257.441 9.83326L257.86 15.8186ZM255.682 15.0901L256.278 15.6079L260.214 11.0797L259.619 10.5618L255.682 15.0901Z" fill="black" mask="url(#path-5-inside-3)"/>
<path d="M34.6582 30.8469L56.1046 53.0623" stroke="black" stroke-width="3" stroke-linecap="round" stroke-linejoin="round"/>
<circle cx="34.582" cy="30.782" r="14" transform="rotate(-5 34.582 30.782)" fill="#FC6839" stroke="black" stroke-width="3"/>
</svg>
