<svg width="20" height="20" viewBox="0 0 20 20" fill="none" xmlns="http://www.w3.org/2000/svg">
<path fill-rule="evenodd" clip-rule="evenodd" d="M12.1443 5.33108C11.9366 5.23552 11.7215 5.15342 11.5 5.08587V0H8.5V5.08566C8.18126 5.18281 7.87567 5.31012 7.58656 5.46426L3.78916 1.66686L1.66784 3.78818L5.46494 7.58529C5.31049 7.87478 5.18295 8.18079 5.08566 8.5H0V11.5H5.08587C5.15334 11.7212 5.23535 11.9362 5.33077 12.1436L1.6659 15.8085L3.78722 17.9298L7.32902 14.388C7.69216 14.6095 8.08493 14.7871 8.5 14.9136V20.0003H11.5V14.9134C11.8192 14.8161 12.1252 14.6885 12.4146 14.534L15.8104 17.9298L17.9318 15.8085L14.5354 12.4121C14.6892 12.1234 14.8164 11.8182 14.9134 11.5H19.9993V8.5H14.9136C14.7872 8.08516 14.6097 7.69259 14.3884 7.32963L17.9298 3.78818L15.8085 1.66686L12.1443 5.33108ZM9.99965 7.86328C8.81976 7.86328 7.86328 8.81976 7.86328 9.99965C7.86328 11.1795 8.81976 12.136 9.99965 12.136C11.1795 12.136 12.136 11.1795 12.136 9.99965C12.136 8.81976 11.1795 7.86328 9.99965 7.86328Z" fill="#FC6839"/>
</svg>
